<svg xmlns="http://www.w3.org/2000/svg" width="240" viewBox="0 0 240 99" height="99" version="1.0"><g fill="#ADB9CA"><g><g><path d="M 24.734375 0.84375 C 20.359375 0.84375 16.847656 0.40625 14.203125 -0.46875 C 11.566406 -1.351562 9.578125 -2.921875 8.234375 -5.171875 C 6.898438 -7.429688 6.234375 -10.601562 6.234375 -14.6875 C 6.234375 -18.84375 6.707031 -22.046875 7.65625 -24.296875 C 8.613281 -26.554688 10.253906 -28.175781 12.578125 -29.15625 C 14.898438 -30.144531 18.210938 -30.640625 22.515625 -30.640625 C 24.554688 -30.640625 31.738281 -30.460938 44.0625 -30.109375 L 44.0625 -34.03125 C 44.0625 -38.75 43.640625 -42.09375 42.796875 -44.0625 C 41.953125 -46.039062 40.398438 -47.328125 38.140625 -47.921875 C 35.890625 -48.523438 32.050781 -48.828125 26.625 -48.828125 C 24.300781 -48.828125 21.410156 -48.703125 17.953125 -48.453125 C 14.503906 -48.203125 11.832031 -47.898438 9.9375 -47.546875 L 9.9375 -53.359375 C 15.21875 -54.273438 21.59375 -54.734375 29.0625 -54.734375 C 35.257812 -54.734375 39.851562 -54.132812 42.84375 -52.9375 C 45.84375 -51.738281 47.867188 -49.726562 48.921875 -46.90625 C 49.984375 -44.09375 50.515625 -39.867188 50.515625 -34.234375 L 50.515625 0 L 44.90625 0 L 44.59375 -8.03125 L 44.0625 -8.03125 C 42.65625 -4.4375 40.242188 -2.054688 36.828125 -0.890625 C 33.410156 0.265625 29.378906 0.84375 24.734375 0.84375 Z M 26.53125 -4.96875 C 30.539062 -4.96875 33.796875 -5.316406 36.296875 -6.015625 C 38.796875 -6.722656 40.609375 -8.171875 41.734375 -10.359375 C 42.585938 -12.046875 43.1875 -13.804688 43.53125 -15.640625 C 43.882812 -17.472656 44.0625 -19.617188 44.0625 -22.078125 L 44.0625 -25.359375 L 24.203125 -25.359375 C 20.890625 -25.359375 18.457031 -25.128906 16.90625 -24.671875 C 15.351562 -24.210938 14.257812 -23.28125 13.625 -21.875 C 13 -20.46875 12.6875 -18.25 12.6875 -15.21875 C 12.6875 -12.332031 13.054688 -10.164062 13.796875 -8.71875 C 14.535156 -7.269531 15.851562 -6.28125 17.75 -5.75 C 19.65625 -5.226562 22.582031 -4.96875 26.53125 -4.96875 Z M 26.53125 -4.96875" transform="translate(9.591 67.946)"/></g></g></g><g fill="#907CFF"><g><g><path d="M 9.71875 -53.890625 L 15.328125 -53.890625 L 15.75 -43.109375 L 16.28125 -43.109375 C 17.46875 -47.484375 19.578125 -50.515625 22.609375 -52.203125 C 25.640625 -53.890625 29.625 -54.734375 34.5625 -54.734375 L 34.5625 -47.875 C 29.625 -47.875 25.832031 -47.0625 23.1875 -45.4375 C 20.550781 -43.820312 18.722656 -41.410156 17.703125 -38.203125 C 16.679688 -34.992188 16.171875 -30.75 16.171875 -25.46875 L 16.171875 0 L 9.71875 0 Z M 9.71875 -53.890625" transform="translate(69.92 67.946)"/></g></g></g><g fill="#907CFF"><g><g><path d="M 46.390625 -7.1875 L 45.859375 -7.1875 C 44.523438 -4.300781 42.394531 -2.238281 39.46875 -1 C 36.539062 0.226562 32.613281 0.84375 27.6875 0.84375 C 22.050781 0.84375 17.804688 0.0703125 14.953125 -1.46875 C 12.097656 -3.019531 10.109375 -5.734375 8.984375 -9.609375 C 7.859375 -13.484375 7.296875 -19.265625 7.296875 -26.953125 C 7.296875 -34.554688 7.859375 -40.296875 8.984375 -44.171875 C 10.109375 -48.046875 12.113281 -50.773438 15 -52.359375 C 17.894531 -53.941406 22.160156 -54.734375 27.796875 -54.734375 C 32.441406 -54.734375 36.332031 -54.117188 39.46875 -52.890625 C 42.601562 -51.660156 44.875 -49.28125 46.28125 -45.75 L 46.8125 -45.75 L 47.234375 -53.890625 L 52.84375 -53.890625 L 52.84375 21.140625 L 46.390625 21.140625 Z M 30.109375 -5.28125 C 34.265625 -5.28125 37.539062 -5.878906 39.9375 -7.078125 C 42.332031 -8.273438 44.023438 -10.175781 45.015625 -12.78125 C 45.578125 -14.40625 45.945312 -16.273438 46.125 -18.390625 C 46.300781 -20.503906 46.390625 -23.359375 46.390625 -26.953125 C 46.390625 -30.679688 46.28125 -33.65625 46.0625 -35.875 C 45.851562 -38.09375 45.363281 -40.1875 44.59375 -42.15625 C 42.96875 -46.457031 38.140625 -48.609375 30.109375 -48.609375 C 25.109375 -48.609375 21.515625 -48.113281 19.328125 -47.125 C 17.148438 -46.144531 15.671875 -44.191406 14.890625 -41.265625 C 14.117188 -38.335938 13.734375 -33.566406 13.734375 -26.953125 C 13.734375 -20.328125 14.117188 -15.550781 14.890625 -12.625 C 15.671875 -9.707031 17.148438 -7.753906 19.328125 -6.765625 C 21.515625 -5.773438 25.109375 -5.28125 30.109375 -5.28125 Z M 30.109375 -5.28125" transform="translate(107.431 67.946)"/></g></g></g><g fill="#ADB9CA"><g><g><path d="M 47.765625 -8.140625 L 47.125 -8.140625 C 46.070312 -5.316406 44.15625 -3.113281 41.375 -1.53125 C 38.59375 0.0507812 34.382812 0.84375 28.75 0.84375 C 23.394531 0.84375 19.359375 0.140625 16.640625 -1.265625 C 13.929688 -2.671875 12.097656 -4.835938 11.140625 -7.765625 C 10.191406 -10.691406 9.71875 -14.796875 9.71875 -20.078125 L 9.71875 -53.890625 L 16.171875 -53.890625 L 16.171875 -22.296875 C 16.171875 -17.085938 16.539062 -13.335938 17.28125 -11.046875 C 18.019531 -8.753906 19.375 -7.21875 21.34375 -6.4375 C 23.3125 -5.664062 26.550781 -5.28125 31.0625 -5.28125 C 36.0625 -5.28125 39.722656 -6.109375 42.046875 -7.765625 C 44.378906 -9.421875 45.828125 -11.601562 46.390625 -14.3125 C 46.953125 -17.03125 47.234375 -20.925781 47.234375 -26 L 47.234375 -53.890625 L 53.6875 -53.890625 L 53.6875 0 L 48.078125 0 Z M 47.765625 -8.140625" transform="translate(170.091 67.946)"/></g></g></g></svg>